<?xml version="1.0" encoding="utf-8"?>
<svg width="24" height="24" version="1.1" id="Calque_1" xmlns="http://www.w3.org/2000/svg" xmlns:xlink="http://www.w3.org/1999/xlink" x="0px" y="0px"
	 viewBox="0 0 20 20" style="enable-background:new 0 0 20 20;" xml:space="preserve">
<path d="M18.4,3.7H1.6C0.7,3.7,0,4.4,0,5.2v9.5c0,0.9,0.7,1.6,1.6,1.6h16.9c0.9,0,1.6-0.7,1.6-1.6V5.2C20,4.4,19.3,3.7,18.4,3.7z
	 M18.4,4.7C18.5,4.7,18.5,4.7,18.4,4.7L10.6,10c-0.3,0.2-0.9,0.2-1.2,0L1.5,4.7c0,0,0.1,0,0.1,0L18.4,4.7L18.4,4.7z M18.4,15.3H1.6
	C1.3,15.3,1,15,1,14.7v-9l7.8,5.2c0.3,0.2,0.7,0.3,1.2,0.3c0.4,0,0.8-0.1,1.2-0.3l7.8-5.2v9C18.9,15,18.7,15.3,18.4,15.3z"/>
</svg>
