<svg xmlns="http://www.w3.org/2000/svg" viewBox="0 0 32 32"><path d="M19.93,12.07c.09,2.14-2.79,3-4,1.37-1.61-2.06,0-4.28.26-6.46.28-2.74-1.43-5.39-3.56-7,1.17,1.89-.37,4.4-1.6,5.8S8.33,8.29,7,9.53a32.7,32.7,0,0,0-3.95,4.28C.73,16.92-.7,20.84.35,24.72S4.76,31.07,8.56,32a6.1,6.1,0,0,1-3.71-5.09,7.13,7.13,0,0,1,3.33-5.65,2.56,2.56,0,0,0,.21,2.36,2.23,2.23,0,0,0,2.25.86c2-.44,2.08-2.61.9-3.88s-2.28-2.68-1.84-4.5a4.72,4.72,0,0,1,1.49-2.38c-.54,1.44,1,2.85,2,3.56a53,53,0,0,1,5.35,3.58,7,7,0,0,1,2.72,5.9C21,29.27,19,31.05,16.7,32c4.82-1.06,9.8-4.81,9.9-10.15.09-4.4-2.93-7.79-6.67-9.73" style="fill:#ee4323"/></svg>